<?xml version="1.0" encoding="utf-8"?>
<!-- Generator: Adobe Illustrator 27.5.0, SVG Export Plug-In . SVG Version: 6.00 Build 0)  -->
<svg version="1.1" xmlns="http://www.w3.org/2000/svg" xmlns:xlink="http://www.w3.org/1999/xlink" x="0px" y="0px"
	 viewBox="0 0 3710 3710" style="enable-background:new 0 0 3710 3710;" xml:space="preserve">
<g id="Background">
	<g>
		<g>
			<rect style="fill:#FFFFFF;" width="3710" height="3710"/>
		</g>
	</g>
</g>
<g id="Illustration">
	<g>
		<path style="fill:#F4F7FA;" d="M2930.011,2611.344C2376.05,3319.924,1078.733,3331.3,719.596,2937.71
			c-143.336-157.064-181.18-426.823-236.811-823.068c-26.78-190.745-30.615-344.499-32.889-449.99
			c-7.841-358.84-11.744-538.278,46.023-660.35c165.465-349.429,740.268-485.429,1111.794-491.738
			c25.93-0.448,52.099-0.276,78.472,0.517c435.03,12.962,925.929,194.054,1228.688,581.025
			c31.295,39.921,60.518,82.048,87.502,126.417C3278.728,1674.96,3232.228,2224.821,2930.011,2611.344z"/>
		<g>
			<g>
				<defs>
					<path id="SVGID_1_" d="M1594.67,2639.362c97.892-69.126,115.398-250.209,91.429-371.735
						c-27.984-141.884-101.271-145.642-114.449-257.681c-24.535-208.602,219.454-281.119,211.394-493.447
						c-6.588-173.576-172.149-190.977-170.698-383.53c1.046-138.944,87.754-196.667,48.809-317.906
						c-3.33-10.365-40.837-121.624-135.859-147.629c-95.907-26.245-194.313,49.713-242.975,110.896
						c-89.953,113.096-23.366,192.583-80.802,365.783c-78.198,235.805-247.911,228.05-269.601,413.58
						c-17.912,153.205,93.683,193.831,70.449,363.307c-21.576,157.374-125.642,179.53-130.012,286.796
						C862.3,2454.562,1394.997,2780.36,1594.67,2639.362z"/>
				</defs>
				
					<linearGradient id="SVGID_00000090267624626815391170000006950193476509833865_" gradientUnits="userSpaceOnUse" x1="1540.7529" y1="1468.7633" x2="2026.3101" y2="328.9795">
					<stop  offset="0" style="stop-color:#FF9085"/>
					<stop  offset="1" style="stop-color:#FB6FBB"/>
				</linearGradient>
				
					<use xlink:href="#SVGID_1_"  style="overflow:visible;fill:url(#SVGID_00000090267624626815391170000006950193476509833865_);"/>
				<clipPath id="SVGID_00000057852333460781583010000002635450101147742615_">
					<use xlink:href="#SVGID_1_"  style="overflow:visible;"/>
				</clipPath>
				<g style="clip-path:url(#SVGID_00000057852333460781583010000002635450101147742615_);">
					<g style="opacity:0.7;">
						<path style="fill:#FFFFFF;" d="M1453.504,2755.278c-0.578,0-1.165-0.149-1.701-0.464
							c-91.888-53.972-168.454-124.803-227.574-210.525c-56.078-81.315-114.053-165.384-109.376-270.529
							c3.558-80.002,40.782-122.739,87.909-176.846c44.931-51.588,100.853-115.792,139.976-234.703
							c22.332-67.874,50.126-152.345,28.697-253.473c-12.436-58.692-35.402-91.906-55.667-121.209
							c-21.221-30.689-39.549-57.193-36.047-102.663c5.609-72.839,44.511-119.357,89.555-173.221
							c27.316-32.666,55.563-66.444,80.334-110.311c69.633-123.323,71.48-289.347,5.491-493.46
							c-0.572-1.769,0.399-3.666,2.168-4.238c1.77-0.574,3.667,0.4,4.239,2.167c66.591,205.978,64.561,373.812-6.037,498.841
							c-25.073,44.404-53.52,78.422-81.031,111.319c-44.302,52.977-82.562,98.73-88.007,169.421
							c-3.318,43.087,13.534,67.46,34.872,98.317c20.624,29.824,44,63.629,56.717,123.642
							c21.802,102.903-6.304,188.33-28.891,256.972c-39.547,120.202-95.963,184.975-141.294,237.02
							c-46.263,53.117-82.805,95.072-86.258,172.724c-4.577,102.886,52.746,186.009,108.183,266.395
							c58.568,84.921,134.416,155.084,225.451,208.555c1.604,0.942,2.14,3.004,1.198,4.607
							C1455.782,2754.683,1454.657,2755.278,1453.504,2755.278z"/>
					</g>
					<g style="opacity:0.7;">
						<path style="fill:#FFFFFF;" d="M1381.588,1660.184c-0.925,0-1.847-0.379-2.511-1.123c-1.239-1.386-1.119-3.514,0.266-4.752
							c155.709-139.133,228.871-268.213,262.825-351.998c36.773-90.738,36.755-149.353,36.75-149.934
							c-0.015-1.859,1.481-3.377,3.338-3.393c0.01,0,0.02,0,0.028,0c1.846,0,3.349,1.487,3.366,3.336
							c0.021,2.416,0.09,60.216-37.066,152.084c-34.196,84.548-107.885,214.755-264.755,354.925
							C1383.187,1659.901,1382.385,1660.184,1381.588,1660.184z"/>
					</g>
					<g style="opacity:0.7;">
						<path style="fill:#FFFFFF;" d="M1306.683,1961.008c-0.75,0-1.502-0.248-2.128-0.759
							c-86.917-71.013-153.004-151.563-196.425-239.413c-34.76-70.328-55.147-145.448-60.592-223.275
							c-9.276-132.529,28.623-228.368,29.006-229.32c0.697-1.725,2.656-2.557,4.38-1.864c1.724,0.694,2.559,2.655,1.865,4.379
							c-0.38,0.941-37.756,95.59-28.515,226.65c8.521,120.861,59.599,298.362,254.54,457.63c1.44,1.176,1.653,3.297,0.477,4.737
							C1308.625,1960.587,1307.657,1961.008,1306.683,1961.008z"/>
					</g>
					<g style="opacity:0.7;">
						<path style="fill:#FFFFFF;" d="M1164.432,2458.026c-1.456,0-2.797-0.952-3.228-2.419c-0.524-1.784,0.498-3.654,2.281-4.177
							c229.594-67.36,349.322-189.751,409.331-280.564c64.924-98.25,75.793-181.449,75.895-182.278
							c0.228-1.845,1.926-3.156,3.754-2.929c1.844,0.228,3.156,1.907,2.929,3.752c-0.105,0.845-11.176,85.613-76.961,185.166
							c-60.628,91.75-181.504,215.378-413.05,283.311C1165.065,2457.982,1164.746,2458.026,1164.432,2458.026z"/>
					</g>
					<g style="opacity:0.7;">
						<path style="fill:#FFFFFF;" d="M1460.226,1082.987c-0.909,0-1.813-0.364-2.477-1.084
							c-131.316-142.396-147.308-290.975-137.599-390.543c10.517-107.844,52.707-183.11,53.131-183.858
							c0.92-1.616,2.978-2.181,4.589-1.263c1.617,0.918,2.182,2.973,1.265,4.589c-0.419,0.737-41.986,74.971-52.311,181.463
							c-9.514,98.126,6.336,244.582,135.875,385.049c1.259,1.367,1.173,3.496-0.194,4.756
							C1461.859,1082.692,1461.041,1082.987,1460.226,1082.987z"/>
					</g>
				</g>
			</g>
		</g>
		<g>
			<g>
				<g>
					<defs>
						<path id="SVGID_00000128465455696166754590000017250296538820685707_" d="M1341.285,3130.33
							c24.861,3.525,82.054-10.721,95.432-20.582c89.028-65.622,263.695-177.657,288.134-291.993
							c4.174-19.527-76.772-61.076-83.936-82.035c-45.179-39.017-63.272-49.75-88-107.942
							c-73.005-171.798,255.275-365.885-16.002-540.879c-198.707-128.179-403.116-103.976-286.474-435.188
							c116.641-331.213,18.785-1020.476-402.819-883.388c-241.961,78.675-113.521,423.188-277.299,605.918
							c-155.631,173.64-116.064,362.898,64.398,542.728c180.461,179.83,40.601,241.148-74.355,415.257
							c-138.087,209.143,204.104,347.447,367.53,397.823C1059.499,2770.612,1367.239,2962.695,1341.285,3130.33z"/>
					</defs>
					
						<linearGradient id="SVGID_00000178892358926865188010000015619047207417785483_" gradientUnits="userSpaceOnUse" x1="952.8118" y1="1242.3074" x2="1096.2798" y2="2384.53">
						<stop  offset="0.0036" style="stop-color:#6165D7"/>
						<stop  offset="1" style="stop-color:#AA80F9"/>
					</linearGradient>
					
						<use xlink:href="#SVGID_00000128465455696166754590000017250296538820685707_"  style="overflow:visible;fill:url(#SVGID_00000178892358926865188010000015619047207417785483_);"/>
					<clipPath id="SVGID_00000005227529943693334240000015092285094248533131_">
						<use xlink:href="#SVGID_00000128465455696166754590000017250296538820685707_"  style="overflow:visible;"/>
					</clipPath>
					<g style="opacity:0.7;clip-path:url(#SVGID_00000005227529943693334240000015092285094248533131_);">
						<g>
							<path style="fill:#FCFDFE;" d="M1575.106,2972.615l3.53-4.004C961.882,2424.525,734.771,1573.475,971.111,692.057
								l-5.159-1.385c-112.007,417.729-119.727,844.934-22.324,1235.428C1046.028,2336.632,1264.39,2698.509,1575.106,2972.615z"/>
							<path style="fill:#FCFDFE;" d="M492.998,2412.568c224.698-10.705,569.815,82.609,769.322,208.018l2.84-4.521
								c-200.292-125.9-546.795-219.579-772.415-208.831L492.998,2412.568z"/>
							<path style="fill:#FCFDFE;" d="M1455.258,2864.423l4.503-2.871c-65.8-103.315-76.841-235.927-32.816-394.149
								c32.28-116.015,92.865-242.844,180.076-376.969l-4.479-2.909c-87.505,134.58-148.318,261.906-180.742,378.445
								C1377.351,2625.714,1388.607,2759.773,1455.258,2864.423z"/>
							<path style="fill:#FCFDFE;" d="M931.957,1870.137l4.646-2.634c-114.013-201.123-332.892-306.939-496.432-360.297l-1.656,5.08
								C601.158,1565.347,818.79,1670.504,931.957,1870.137z"/>
							<path style="fill:#FCFDFE;" d="M875.029,1343.977l5.237,1.045c50.99-255.409,255.997-436.277,373.658-521.357l-3.129-4.329
								C1132.5,904.877,926.377,1086.779,875.029,1343.977z"/>
						</g>
					</g>
				</g>
			</g>
		</g>
		<g>
			<g>
				
					<linearGradient id="SVGID_00000075850785926630443990000008044766579425773703_" gradientUnits="userSpaceOnUse" x1="1637.6888" y1="3071.0107" x2="1451.8566" y2="3149.0603">
					<stop  offset="0" style="stop-color:#40447E"/>
					<stop  offset="0.9964" style="stop-color:#3C3B6B"/>
				</linearGradient>
				<path style="fill:url(#SVGID_00000075850785926630443990000008044766579425773703_);" d="M3165.67,2969.323l-2645.38-23.04
					v68.17c0,18.503,11.539,34.236,27.165,37.039l748.034,134.239c8.878,1.593,17.88,2.016,26.838,1.26l1814.595-153.054
					c16.2-1.366,28.747-17.148,28.747-36.158V2969.323z"/>
				<g>
					
						<linearGradient id="SVGID_00000111159262824024525750000017679064572510348466_" gradientUnits="userSpaceOnUse" x1="1389.5461" y1="2251.9856" x2="1187.8702" y2="2336.6895">
						<stop  offset="0" style="stop-color:#40447E"/>
						<stop  offset="0.9964" style="stop-color:#3C3B6B"/>
					</linearGradient>
					<path style="fill:url(#SVGID_00000111159262824024525750000017679064572510348466_);" d="M2314.089,2858.816L549.405,2983.525
						c-31.578,2.231-57.253-21.48-57.253-52.969V1669.017c0-31.488,25.675-57.015,57.253-57.015h1764.683
						c26.015,0,47.05,23.075,47.05,51.54v1140.408C2361.138,2832.415,2340.104,2856.978,2314.089,2858.816z"/>
					
						<linearGradient id="SVGID_00000120525931607248506070000009964376091676862359_" gradientUnits="userSpaceOnUse" x1="520.2901" y1="2297.8364" x2="2389.2761" y2="2297.8364">
						<stop  offset="0" style="stop-color:#40447E"/>
						<stop  offset="0.9964" style="stop-color:#3C3B6B"/>
					</linearGradient>
					<path style="fill:url(#SVGID_00000120525931607248506070000009964376091676862359_);" d="M2342.226,2858.816L577.544,2983.525
						c-31.579,2.231-57.253-21.48-57.253-52.969V1669.017c0-31.488,25.675-57.015,57.253-57.015h1764.683
						c26.016,0,47.05,23.075,47.05,51.54v1140.408C2389.276,2832.415,2368.242,2856.978,2342.226,2858.816z"/>
					
						<linearGradient id="SVGID_00000075872223966007174450000004420356150921058200_" gradientUnits="userSpaceOnUse" x1="1700.9733" y1="1844.8353" x2="268.5752" y2="4186.4961">
						<stop  offset="0" style="stop-color:#FFC444"/>
						<stop  offset="0.9964" style="stop-color:#F36F56"/>
					</linearGradient>
					<path style="fill:url(#SVGID_00000075872223966007174450000004420356150921058200_);" d="M2287.251,2778.416L643.634,2886.742
						c-25.698,1.693-46.58-17.769-46.58-43.475V1738.788c0-25.706,20.882-46.632,46.58-46.738l1643.618-6.802
						c21.461-0.089,38.82,18.819,38.82,42.233v1005.983C2326.072,2756.876,2308.713,2777.001,2287.251,2778.416z"/>
					<path style="fill:#FFFFFF;" d="M1522.208,1646.509c0,11.722-9.082,21.251-20.299,21.286
						c-11.23,0.035-20.343-9.462-20.343-21.21c0-11.749,9.113-21.279,20.343-21.287
						C1513.126,1625.289,1522.208,1634.786,1522.208,1646.509z"/>
					<path style="opacity:0.48;fill:#FFFFFF;" d="M1917.054,2512.82c-136.041-73.197-243.01,19.552-346.242-71.959
						c-62.587-55.48-31.859-96.852-108.87-179.76c-85.296-91.828-140.828-60.96-226.548-143.606
						c-108.388-104.5-54.178-185.804-147.542-260.832c-113.262-91.02-235.409-6.775-343.227-94.066
						c-46.503-37.649-72.018-92.384-85.341-150.594H553.789c-18.487,0-33.499,14.983-33.499,33.466v1307.695
						c0,18.483,15.012,32.4,33.499,31.088l1798.501-127.662c8.826-0.626,16.652-5.78,21.675-13.25
						c-131.656-4.799-212.538-48.933-264.241-94.559C2008.581,2659.523,2026.124,2571.504,1917.054,2512.82z"/>
				</g>
				
					<linearGradient id="SVGID_00000058588790657125524280000012014148053421041317_" gradientUnits="userSpaceOnUse" x1="520.2901" y1="2988.9802" x2="3165.6702" y2="2988.9802">
					<stop  offset="0" style="stop-color:#40447E"/>
					<stop  offset="0.9964" style="stop-color:#3C3B6B"/>
				</linearGradient>
				<path style="fill:url(#SVGID_00000058588790657125524280000012014148053421041317_);" d="M2298.194,2853.161L520.29,2984.428
					l775.199,139.113c8.878,1.593,17.88,2.016,26.838,1.26l1843.343-155.478l-839.195-115.271
					C2317.09,2852.763,2307.625,2852.465,2298.194,2853.161z"/>
				
					<linearGradient id="SVGID_00000092453209448184464380000004543918118884687259_" gradientUnits="userSpaceOnUse" x1="779.7141" y1="2967.3054" x2="2717.9673" y2="2967.3054">
					<stop  offset="0" style="stop-color:#40447E"/>
					<stop  offset="0.9964" style="stop-color:#3C3B6B"/>
				</linearGradient>
				<polygon style="opacity:0.3;fill:url(#SVGID_00000092453209448184464380000004543918118884687259_);" points="779.714,2987.729 
					2259.872,2876.817 2717.967,2939.233 1250.561,3057.794 				"/>
			</g>
			<g>
				<path style="fill:#FFFFFF;" d="M2253.05,996.875v1706.799c0,43.739-34.618,79.991-79.384,82.881l-14.397,0.886l-1451.443,89.382
					c37.328-5.976,64.242-37.434,64.242-74.343V971.919l992.224,16.714L2253.05,996.875z"/>
			</g>
			<g>
				<polygon style="fill:#D8DEE8;" points="2098.654,1558.321 962.039,1568.417 962.039,1369.695 2098.654,1369.39 				"/>
				<g>
					<polygon style="fill:#D8DEE8;" points="1786.296,1723.974 1033.762,1736.17 1033.762,1623.91 1786.296,1615.389 					"/>
					<g>
						<polygon style="fill:#D8DEE8;" points="2033.429,1719.969 1848.508,1722.966 1848.508,1614.684 2033.429,1612.59 						"/>
					</g>
				</g>
				<g>
					<polygon style="fill:#D8DEE8;" points="1498.104,1880.693 1033.762,1891.352 1033.762,1779.092 1498.104,1770.701 					"/>
					<g>
						<polygon style="fill:#D8DEE8;" points="2033.429,1868.406 1848.508,1872.65 1848.508,1764.368 2033.429,1761.026 						"/>
					</g>
				</g>
				<g>
					<polygon style="fill:#D8DEE8;" points="1621.691,2029.071 1033.762,2046.534 1033.762,1934.275 1621.691,1919.682 					"/>
					<g>
						<polygon style="fill:#D8DEE8;" points="2033.429,2016.842 1848.508,2022.334 1848.508,1914.052 2033.429,1909.462 						"/>
					</g>
				</g>
				<g>
					<polygon style="fill:#D8DEE8;" points="1290.572,2192.355 1033.762,2201.716 1033.762,2089.457 1290.572,2081.35 					"/>
					<g>
						<polygon style="fill:#D8DEE8;" points="2033.429,2165.278 1848.508,2172.018 1848.508,2063.736 2033.429,2057.898 						"/>
					</g>
				</g>
				<g>
					<path style="fill:#D8DEE8;" d="M962.038,1515.431v898.989l570.043-25.951l566.577-25.816v-854.728L962.038,1515.431z
						 M2067.018,2332.563l-546.853,24.133l-523.223,23.09v-831.537l1070.076-8.583V2332.563z"/>
				</g>
				<g>
					<path style="fill:#D8DEE8;" d="M1500.424,2459.659l-520.249,25.313c-10.013,0.487-18.136,8.582-18.136,18.08v127.895
						c0,9.498,8.123,16.745,18.136,16.188l520.249-28.973c9.558-0.532,17.3-8.478,17.3-17.747v-124.814
						C1517.724,2466.332,1509.982,2459.194,1500.424,2459.659z"/>
					<path style="fill:#D8DEE8;" d="M2082.235,2431.351l-493.43,24.008c-9.491,0.462-17.191,8.333-17.191,17.58v124.515
						c0,9.247,7.7,16.314,17.191,15.786l493.43-27.48c9.071-0.505,16.418-8.235,16.418-17.264v-121.593
						C2098.654,2437.872,2091.306,2430.91,2082.235,2431.351z"/>
				</g>
				<polygon style="fill:#D8DEE8;" points="2098.654,1300.896 962.039,1294.854 962.039,1163.106 2098.654,1170.257 				"/>
			</g>
		</g>
		<g>
			
				<linearGradient id="SVGID_00000108301172530286853430000000742348172372439743_" gradientUnits="userSpaceOnUse" x1="-1076.7137" y1="1684.6892" x2="-994.1237" y2="1595.579" gradientTransform="matrix(-1 0 0 1 1514.9646 0)">
				<stop  offset="0" style="stop-color:#AA80F9"/>
				<stop  offset="0.9964" style="stop-color:#6165D7"/>
			</linearGradient>
			<path style="fill:url(#SVGID_00000108301172530286853430000000742348172372439743_);" d="M2600.136,1451.844l-30.822,6.164
				c0,0-161.815,206.507-138.698,285.102c23.116,78.596,138.698,18.494,138.698,18.494L2600.136,1451.844z"/>
			
				<linearGradient id="SVGID_00000096759340781417919810000001662477910010437818_" gradientUnits="userSpaceOnUse" x1="3490.4661" y1="2873.1575" x2="3585.5664" y2="2873.1575" gradientTransform="matrix(0.9996 0.0289 -0.0289 0.9996 -690.7108 -31.2392)">
				<stop  offset="0" style="stop-color:#AA80F9"/>
				<stop  offset="0.9964" style="stop-color:#6165D7"/>
			</linearGradient>
			<path style="fill:url(#SVGID_00000096759340781417919810000001662477910010437818_);" d="M2803.221,2922.189
				c5.2,4.227,6.157,14.784,6.781,21.684c0.281,3.082,0.419,4.625,0.075,5.713c-2.513,7.941-17.915,8.777-42.067,11.245
				c-38.167,3.899-49.526,6.903-52.513,1.224c-2.8-5.323,3.975-14.038,4.738-14.999c4.101-5.166,9.135-7.045,18.866-10.248
				c18.007-5.927,30.174-9.172,33.858-10.155C2795.963,2920.511,2799.805,2919.413,2803.221,2922.189z"/>
			
				<linearGradient id="SVGID_00000114041918456265288050000013382581172604000653_" gradientUnits="userSpaceOnUse" x1="3881.5562" y1="2650.0562" x2="3923.2783" y2="2563.7012" gradientTransform="matrix(0.9925 0.1225 -0.1225 0.9925 -757.9742 -162.6817)">
				<stop  offset="0" style="stop-color:#FFC444"/>
				<stop  offset="0.9964" style="stop-color:#F36F56"/>
			</linearGradient>
			<path style="fill:url(#SVGID_00000114041918456265288050000013382581172604000653_);" d="M2780.522,2887.321l-3.82,43.493
				c1.084,2.1,14.012,8.4,24.281,2.998l9.814-42.752L2780.522,2887.321z"/>
			
				<linearGradient id="SVGID_00000072264398760993083810000014044385687939399319_" gradientUnits="userSpaceOnUse" x1="3812.2761" y1="2265.8096" x2="3913.3137" y2="2265.8096" gradientTransform="matrix(0.9642 0.2651 -0.2651 0.9642 -677.8856 -308.9189)">
				<stop  offset="0" style="stop-color:#AA80F9"/>
				<stop  offset="0.9964" style="stop-color:#6165D7"/>
			</linearGradient>
			<path style="fill:url(#SVGID_00000072264398760993083810000014044385687939399319_);" d="M2491.136,2887.544
				c6.233,6.883,7.653,19.558,2.233,25.802c-5.328,6.14-13.338,1.535-36.058,2.213c-24.337,0.728-30.692,6.476-47.229,1.912
				c-6.681-1.847-18.481-6.326-18.258-11.098c0.157-3.355,6.165-5.088,26.23-11.81c28.481-9.541,28.356-10.062,34.404-11.064
				C2467.649,2880.983,2482.904,2878.455,2491.136,2887.544z"/>
			
				<linearGradient id="SVGID_00000067230682568789833310000013407893442109881510_" gradientUnits="userSpaceOnUse" x1="3703.8066" y1="2444.5767" x2="3746.4143" y2="2356.3882" gradientTransform="matrix(0.9802 0.1979 -0.1979 0.9802 -689.0958 -227.1835)">
				<stop  offset="0" style="stop-color:#FFC444"/>
				<stop  offset="0.9964" style="stop-color:#F36F56"/>
			</linearGradient>
			<path style="fill:url(#SVGID_00000067230682568789833310000013407893442109881510_);" d="M2475.543,2847.851l-12.207,40.603
				c0.923,2.178,13.332,9.443,23.981,4.841l18.129-39.409L2475.543,2847.851z"/>
			
				<linearGradient id="SVGID_00000066485888509597980900000011733295696745158031_" gradientUnits="userSpaceOnUse" x1="-915.4673" y1="2721.9526" x2="-1184.954" y2="2114.4656" gradientTransform="matrix(-1 0 0 1 1514.9646 0)">
				<stop  offset="0" style="stop-color:#AB316D"/>
				<stop  offset="1" style="stop-color:#792D3D"/>
			</linearGradient>
			<path style="fill:url(#SVGID_00000066485888509597980900000011733295696745158031_);" d="M2583.998,1958.58
				c-1.749,136.457-11.06,289.887-33.404,456.58c-22.081,164.75-53.028,313.61-86.784,444.51c15.574,4.191,31.147,8.38,46.72,12.571
				c39.512-36.842,89.354-94.837,113.405-176.794c14.926-50.868,9.952-77.007,19.42-139.573
				c15.076-99.619,45.613-151.81,77.174-232.142c28.363-72.186,61.887-178.127,79.862-319.737
				C2728.26,1988.858,2656.129,1973.718,2583.998,1958.58z"/>
			
				<linearGradient id="SVGID_00000038405464118267077220000005448836035361547687_" gradientUnits="userSpaceOnUse" x1="-915.4673" y1="2721.9529" x2="-1184.9539" y2="2114.4661" gradientTransform="matrix(-1 0 0 1 1514.9646 0)">
				<stop  offset="0" style="stop-color:#AB316D"/>
				<stop  offset="1" style="stop-color:#792D3D"/>
			</linearGradient>
			<path style="opacity:0.3;fill:url(#SVGID_00000038405464118267077220000005448836035361547687_);" d="M2572.396,2613.83
				c15.629-43.176,34.657-56.474,43.151-101.712c7.407-39.459-2.764-52.275-3.083-92.466
				c-0.635-80.09,39.145-106.618,52.398-172.603c7.184-35.77-39.798-126.09-82.897-204.122c1.007-28.771,1.681-56.918,2.033-84.348
				c72.13,15.138,144.262,30.277,216.394,45.416c-17.975,141.609-51.5,247.55-79.862,319.737
				c-31.562,80.331-62.099,132.524-77.174,232.141c-9.469,62.566-4.494,88.706-19.42,139.573
				c-24.051,81.957-73.893,139.952-113.405,176.794c-1.471-0.396-2.943-0.792-4.414-1.188
				c39.829-51.911,52.197-96.004,53.951-130.853C2561.881,2704.176,2552.869,2667.775,2572.396,2613.83z"/>
			
				<linearGradient id="SVGID_00000176762175115471124860000006236682072072206504_" gradientUnits="userSpaceOnUse" x1="-1458.8477" y1="2511.7944" x2="-1728.3296" y2="1904.318" gradientTransform="matrix(-0.9925 -0.1225 -0.1225 0.9925 1431.9595 108.1241)">
				<stop  offset="0" style="stop-color:#AB316D"/>
				<stop  offset="1" style="stop-color:#792D3D"/>
			</linearGradient>
			<path style="fill:url(#SVGID_00000176762175115471124860000006236682072072206504_);" d="M2733.969,1974.615
				c9.532,173.551,17.372,350.332,23.313,530.244c4.459,135.006,7.733,268.299,9.909,399.839
				c15.907,1.964,31.816,3.929,47.725,5.892c15.371-28.619,35.788-72.375,49.774-128.456
				c16.988-68.112,13.054-108.561,20.503-179.155c8.359-79.176,20.499-96.425,42.007-196.304
				c43.653-202.701,65.479-304.053,16.785-367.099C2928.179,2019.109,2878.624,1967.767,2733.969,1974.615z"/>
			
				<linearGradient id="SVGID_00000150816563097629639830000016908579291117651841_" gradientUnits="userSpaceOnUse" x1="-1435.0989" y1="2039.6243" x2="-1122.77" y2="1702.6383" gradientTransform="matrix(-1 0 0 1 1514.9646 0)">
				<stop  offset="0" style="stop-color:#AA80F9"/>
				<stop  offset="0.9964" style="stop-color:#6165D7"/>
			</linearGradient>
			<path style="fill:url(#SVGID_00000150816563097629639830000016908579291117651841_);" d="M2954.279,1457.156
				c-41.149-11.572-101.456-25.104-175.313-29.279c-108.898-6.155-163.367-8.879-195.334,16.155
				c-99.144,77.64-5.186,355.147-40.515,500.963c-29.727,122.692-30.822,124.829-30.822,124.829
				c-7.027,13.716-18.415,32.776-13.87,55.479c3.574,17.857,17.085,38.375,35.445,44.692
				c38.151,13.126,60.021-47.875,123.288-66.267c66.132-19.226,140.122,18.969,233.682,67.265
				c59.542,30.737,79.872,50.34,100.736,40.612c40.174-18.732,29.142-121.426,24.658-163.356
				C2998.415,1881.631,2978.361,1686.551,2954.279,1457.156z"/>
			
				<linearGradient id="SVGID_00000157990630265897935470000018423317273885020561_" gradientUnits="userSpaceOnUse" x1="-1169.5857" y1="1739.2275" x2="-1048.5068" y2="1739.2275" gradientTransform="matrix(-1 0 0 1 1514.9646 0)">
				<stop  offset="0" style="stop-color:#FFC444"/>
				<stop  offset="0.9964" style="stop-color:#F36F56"/>
			</linearGradient>
			<path style="fill:url(#SVGID_00000157990630265897935470000018423317273885020561_);" d="M2681.043,1740.029
				c2.879-0.643,8.009-19.795-4.623-25.428c-57.021-25.428-101.147,24.917-107.048,40.408c-5.901,15.49-5.901,15.49-5.901,15.49
				s28.318,2.213,45.879-3.687C2626.912,1760.91,2657.629,1745.25,2681.043,1740.029z"/>
			<g>
				<g>
					
						<linearGradient id="SVGID_00000139976497073787064730000002521282315452550285_" gradientUnits="userSpaceOnUse" x1="112.787" y1="3191.6711" x2="79.476" y2="3144.3694" gradientTransform="matrix(-0.2291 -0.9734 0.9734 -0.2291 -505.0452 2554.8499)">
						<stop  offset="0" style="stop-color:#444B8C"/>
						<stop  offset="0.9964" style="stop-color:#26264F"/>
					</linearGradient>
					<path style="fill:url(#SVGID_00000139976497073787064730000002521282315452550285_);" d="M2525.252,1812.134l100.318,5.06
						c3.844,0.194,8.434-4.563,7.488-7.802l-46.861-151.645c-0.738-2.521-3.304-4.204-6.16-4.046l-96.208,2.108
						c-3.135,0.184-4.853,6.358-4.001,9.409l39.864,142.594C2520.348,1810.163,2522.716,1812.006,2525.252,1812.134z"/>
					
						<linearGradient id="SVGID_00000012465125437141025880000011215921425427822756_" gradientUnits="userSpaceOnUse" x1="48.3603" y1="3278.0908" x2="127.6807" y2="3116.9714" gradientTransform="matrix(-0.2291 -0.9734 0.9734 -0.2291 -505.0452 2554.8499)">
						<stop  offset="0" style="stop-color:#311944"/>
						<stop  offset="1" style="stop-color:#893976"/>
					</linearGradient>
					<path style="fill:url(#SVGID_00000012465125437141025880000011215921425427822756_);" d="M2527.066,1808.902l100.871,4.734
						c3.866,0.181,6.532-2.585,5.586-5.828l-45.059-154.266c-0.74-2.53-3.321-4.211-6.192-4.041l-96.343,5.697
						c-3.151,0.186-5.273,3.219-4.417,6.282l39.969,143.102C2522.138,1806.939,2524.518,1808.783,2527.066,1808.902z"/>
				</g>
				
					<linearGradient id="SVGID_00000057837700495153523110000003568118600109534105_" gradientUnits="userSpaceOnUse" x1="3.4534" y1="3171.8696" x2="176.4471" y2="3171.8696" gradientTransform="matrix(-0.2291 -0.9734 0.9734 -0.2291 -505.0452 2554.8499)">
					<stop  offset="0" style="stop-color:#311944"/>
					<stop  offset="1" style="stop-color:#893976"/>
				</linearGradient>
				<path style="opacity:0.3;fill:url(#SVGID_00000057837700495153523110000003568118600109534105_);" d="M2577.99,1716.919
					c-2.987,14.029-15.606,11.008-25.899,27.988c-13.068,21.557-0.545,40.593-12.523,48.488c-3.656,2.409-9.834,3.856-20.948,0.949
					l2.859,10.236c0.658,2.358,3.038,4.202,5.586,4.321l100.871,4.734c3.865,0.181,6.531-2.585,5.586-5.828l-45.059-154.266
					c-0.74-2.53-3.32-4.212-6.192-4.041l-14.473,0.856c-1.7,5.301-2.917,11.42-2.784,18.197
					C2565.47,1691.814,2581.49,1700.485,2577.99,1716.919z"/>
			</g>
			
				<linearGradient id="SVGID_00000034809960497268948940000000677954595701783473_" gradientUnits="userSpaceOnUse" x1="-1031.2805" y1="1675.1232" x2="-940.4193" y2="1790.2994" gradientTransform="matrix(-1 0 0 1 1514.9646 0)">
				<stop  offset="0" style="stop-color:#FFC444"/>
				<stop  offset="0.9964" style="stop-color:#F36F56"/>
			</linearGradient>
			<path style="fill:url(#SVGID_00000034809960497268948940000000677954595701783473_);" d="M2481.099,1705.594
				c-0.565-2.426,0.632-4.925,2.436-5.055c7.341-0.529,24.367-0.745,33.767,7.397c12.21,10.579,27.998,29.882,14.702,39.622
				l-12.415,9.097c-0.57,0.418-1.192,0.548-1.817,0.354c-4.412-1.372-22.979-7.198-25.009-8.645
				C2490.914,1747.048,2483.835,1717.333,2481.099,1705.594z"/>
			
				<linearGradient id="SVGID_00000057858547080784783190000014037315651736265394_" gradientUnits="userSpaceOnUse" x1="-1414.394" y1="2058.8137" x2="-1102.0649" y2="1721.8276" gradientTransform="matrix(-1 0 0 1 1514.9646 0)">
				<stop  offset="0" style="stop-color:#AA80F9"/>
				<stop  offset="0.9964" style="stop-color:#6165D7"/>
			</linearGradient>
			<path style="opacity:0.3;fill:url(#SVGID_00000057858547080784783190000014037315651736265394_);" d="M2564.691,2111.433
				c10.759-18.65,10.307-46.815,33.904-60.103c13.758-7.748,24.483-4.125,43.151-4.623c55.647-1.484,66.299-36.493,104.794-38.527
				c59.617-3.152,88.254,77.951,121.747,66.267c21.863-7.627,35.941-51.356,24.657-84.76
				c-15.729-46.566-69.631-40.187-140.24-103.254c-30.206-26.978-73.544-75.665-61.644-97.089
				c12.5-22.502,71.807,10.517,115.583-23.116c25.544-19.625,22.283-43.878,43.151-87.842
				c11.308-23.824,52.716-85.765,114.3-127.525c19.797,189.356,36.8,353.952,52.138,497.389
				c4.484,41.93,15.517,144.624-24.658,163.356c-20.864,9.728-41.194-9.875-100.736-40.612
				c-93.56-48.296-167.55-86.491-233.682-67.265c-63.267,18.392-85.136,79.394-123.288,66.267
				c-11.918-4.1-21.732-14.206-28.172-25.663C2539.722,2138.213,2556.585,2125.483,2564.691,2111.433z"/>
			<g>
				
					<linearGradient id="SVGID_00000003101835226456806540000014884444043230157961_" gradientUnits="userSpaceOnUse" x1="-869.7827" y1="2273.6951" x2="-858.6359" y2="1976.7793" gradientTransform="matrix(-0.917 0.3988 0.3988 0.917 1115.3599 -184.8945)">
					<stop  offset="0" style="stop-color:#FFC444"/>
					<stop  offset="0.9964" style="stop-color:#F36F56"/>
				</linearGradient>
				<path style="fill:url(#SVGID_00000003101835226456806540000014884444043230157961_);" d="M2723.424,1344.995
					c-0.069,8.281,20.52,49.756,48.288,69.863c28.02,20.29,63.269,19.186,73.772,21.79c24.352,6.037,27.485,5.873,28.023,8.29
					c2.623,11.789-63.781,51.968-132.385,42.284c-41.987-5.926-80.189-29.88-77.844-42.459c2.361-12.659,44.301-5.867,56.801-28.769
					c8.696-15.932-1.052-38.551-12.573-57.283C2718.665,1337.8,2712.265,1365.904,2723.424,1344.995z"/>
				<g>
					
						<linearGradient id="SVGID_00000072994239344315634210000004945964798880820899_" gradientUnits="userSpaceOnUse" x1="3471.8521" y1="1855.4852" x2="3392.4153" y2="1653.7303" gradientTransform="matrix(0.9052 -0.4249 0.4249 0.9052 -1113.1516 1242.0535)">
						<stop  offset="0" style="stop-color:#311944"/>
						<stop  offset="1" style="stop-color:#6B3976"/>
					</linearGradient>
					<path style="fill:url(#SVGID_00000072994239344315634210000004945964798880820899_);" d="M2649.733,1364.167
						c-14.591-7.652-24.985-28.156-20.888-46.172c3.526-15.503,16.735-23.735,24.642-28.667
						c22.913-14.286,58.293-18.66,79.504-1.392c12.569,10.234,11.951,44.166,12.156,50.117c0.228,6.73-3.248,10.723-5.302,16.867
						c-2.846,8.519-7.232,21.999-14.215,44.377c-3.293-4.066-7.686-8.95-13.303-13.838c-2.163-1.882-10.722-9.175-20.67-13.872
						C2671.724,1362.167,2663.563,1371.417,2649.733,1364.167z"/>
					
						<linearGradient id="SVGID_00000030444906256287765370000014096896726461510063_" gradientUnits="userSpaceOnUse" x1="-1992.8552" y1="1538.8938" x2="-1996.5079" y2="1833.1879" gradientTransform="matrix(-0.9296 0.3687 0.3687 0.9296 273.1125 648.5008)">
						<stop  offset="0" style="stop-color:#FFC444"/>
						<stop  offset="0.9964" style="stop-color:#F36F56"/>
					</linearGradient>
					<path style="fill:url(#SVGID_00000030444906256287765370000014096896726461510063_);" d="M2739.912,1376.494
						c0,0-3.547,33.694-36.251,46.665c-29.283,11.613-63.632-50.119-51.894-72.235c3.917-7.378,15.152-14.996,26.318-16.905
						c6.595-1.127,9.714,0.357,20.453-1.695c9.909-1.891,11.936-4.05,15.661-3.072c4.66,1.226,10.357,6.942,13.619,28.201
						c2.82-8.055,8.327-13.244,13.969-13.253c0.899,0.001,3.478,0.402,5.529,1.893
						C2754.734,1351.487,2752.492,1363.929,2739.912,1376.494z"/>
					
						<linearGradient id="SVGID_00000134246912101091072310000012624767262902828474_" gradientUnits="userSpaceOnUse" x1="3447.583" y1="1865.1447" x2="3368.0669" y2="1663.1886" gradientTransform="matrix(0.9052 -0.4249 0.4249 0.9052 -1113.1516 1242.0535)">
						<stop  offset="0" style="stop-color:#311944"/>
						<stop  offset="1" style="stop-color:#6B3976"/>
					</linearGradient>
					<path style="fill:url(#SVGID_00000134246912101091072310000012624767262902828474_);" d="M2713.677,1324.833
						c-0.886,1.671,5.725,4.797,9.464,11.884c7.262,13.753,1.036,37.344-12.785,45.645c-8.172,4.907-12.976,0.857-27.858,6.075
						c-9.212,3.231-15.987,7.808-20.106,10.99c2.845,17.511,14.312,30.88,27.981,33.125c14.717,2.418,26.668-8.944,31.665-13.694
						c3.343-3.178,14.066-13.334,15.184-28.112c1.164-15.399-9.081-19.494-5.04-31.451c2.038-6.032,6.44-10.312,7.758-20.742
						c0.357-2.834,0.371-5.197,0.325-6.76C2729.254,1327.498,2714.96,1322.413,2713.677,1324.833z"/>
				</g>
			</g>
			
				<linearGradient id="SVGID_00000121279169952274421390000011732104063787579529_" gradientUnits="userSpaceOnUse" x1="-1387.1476" y1="1845.62" x2="-1341.9419" y2="1459.3185" gradientTransform="matrix(-1 0 0 1 1514.9646 0)">
				<stop  offset="0" style="stop-color:#AA80F9"/>
				<stop  offset="0.9964" style="stop-color:#6165D7"/>
			</linearGradient>
			<path style="fill:url(#SVGID_00000121279169952274421390000011732104063787579529_);" d="M2869.828,1504.241
				c16.628-25.22,49.712-49.97,80.137-47.774c88.856,6.413,198.387,245.776,123.288,340.583
				c-57.329,72.371-234.427,75.884-396.062-49.315c0-13.87,0-27.74,0-41.609c79.536,13.91,145.473,23.148,194.178,29.281
				c30.376,3.826,60.635,7.274,66.267-4.623c8.522-18.003-52.318-43.751-75.514-110.959
				C2858.926,1610.56,2838.586,1551.629,2869.828,1504.241z"/>
		</g>
		<g style="opacity:0.7;">
			<path style="fill:#D8DEE8;" d="M2253.05,949.831v370.548l-228.054-0.707l-43.209,49.747l-63.712,73.241
				c-3.231,3.703-7.184,5.756-11.292,6.496l-0.36,0.37c-18.21,20.565-40.448,11.477-40.448-7.136v-124.167l-29.553-0.269
				c-18.141-0.168-34.668-7.203-47.222-18.714c-14.877-13.43-24.2-33.12-24.2-54.931V941.383L2253.05,949.831z"/>
		</g>
		<g>
			
				<linearGradient id="SVGID_00000043437411139849448620000003912452298979969673_" gradientUnits="userSpaceOnUse" x1="773.5131" y1="2626.8879" x2="885.3862" y2="2626.8879">
				<stop  offset="0" style="stop-color:#40447E"/>
				<stop  offset="0.9964" style="stop-color:#3C3B6B"/>
			</linearGradient>
			<polygon style="opacity:0.1;fill:url(#SVGID_00000043437411139849448620000003912452298979969673_);" points="773.513,2288.501 
				779.714,2965.274 885.386,2959.455 			"/>
			<g>
				
					<linearGradient id="SVGID_00000117653155673748118220000008348949705533874105_" gradientUnits="userSpaceOnUse" x1="1292.4381" y1="2932.5181" x2="-140.1315" y2="2801.3853" gradientTransform="matrix(0.9966 -0.0282 0.1345 0.99 474.0173 -191.4288)">
					<stop  offset="0" style="stop-color:#311944"/>
					<stop  offset="1" style="stop-color:#893976"/>
				</linearGradient>
				<path style="fill:url(#SVGID_00000117653155673748118220000008348949705533874105_);" d="M2003.886,2916.385
					c2.474,17.247-8.401,32.26-24.21,33.361l-1064.048,76.001c-19.263,1.341-43.356-14.614-45.969-33.734l-96.146-703.513
					c-2.591-18.958,17.435-35.876,36.785-35.938l1065.848-22.023c15.889-0.063,30.862,13.882,33.316,30.991L2003.886,2916.385z"/>
				
					<linearGradient id="SVGID_00000090274873346307271170000008704023691047587224_" gradientUnits="userSpaceOnUse" x1="30.5706" y1="2841.613" x2="1928.5989" y2="2912.218" gradientTransform="matrix(0.9975 -0.0369 0.1345 0.99 472.6763 -185.2697)">
					<stop  offset="0.0036" style="stop-color:#E38DDD"/>
					<stop  offset="1" style="stop-color:#9571F6"/>
				</linearGradient>
				<path style="fill:url(#SVGID_00000090274873346307271170000008704023691047587224_);" d="M2024.922,2917.291
					c2.49,17.345-8.457,32.444-24.369,33.551l-1076.97,74.951c-19.37,1.348-37.417-13.279-40.045-32.504l-96.724-707.329
					c-2.607-19.061,11.227-34.705,30.683-34.769l1078.866-23.547c15.993-0.065,31.063,13.957,33.533,31.164L2024.922,2917.291z"/>
				<g style="opacity:0.7;">
					<path style="fill:#F4F7FA;" d="M1194.946,2779.496l-183.735,7.778c-8.289,0.351-16.407-5.638-18.03-13.312l-8.904-42.097
						c-1.626-7.688,3.853-14.224,12.164-14.522l184.235-6.595c8.018-0.287,15.847,5.647,17.41,13.185l8.555,41.272
						C1208.201,2772.727,1202.943,2779.157,1194.946,2779.496z"/>
					<path style="fill:#F4F7FA;" d="M1431.09,2769.499l-175.573,7.432c-7.917,0.335-15.672-5.526-17.222-13.027l-8.504-41.149
						c-1.553-7.515,3.68-13.898,11.618-14.183l176.039-6.302c7.665-0.274,15.149,5.534,16.643,12.905l8.178,40.36
						C1443.761,2762.893,1438.735,2769.176,1431.09,2769.499z"/>
					<path style="fill:#F4F7FA;" d="M1656.943,2759.939l-167.943,7.109c-7.57,0.32-14.985-5.417-16.467-12.753l-8.13-40.243
						c-1.485-7.35,3.518-13.587,11.108-13.859l168.379-6.028c7.334-0.263,14.496,5.425,15.925,12.636l7.826,39.489
						C1669.068,2753.488,1664.258,2759.629,1656.943,2759.939z"/>
					<path style="fill:#F4F7FA;" d="M1873.162,2750.786l-160.799,6.807c-7.246,0.307-14.342-5.313-15.76-12.491l-7.781-39.376
						c-1.421-7.191,3.367-13.289,10.631-13.55l161.208-5.771c7.024-0.251,13.884,5.32,15.252,12.379l7.496,38.653
						C1884.776,2744.483,1880.169,2750.489,1873.162,2750.786z"/>
				</g>
				<g>
					
						<linearGradient id="SVGID_00000101091501448791180490000016686669576109879975_" gradientUnits="userSpaceOnUse" x1="-110.8288" y1="2592.6987" x2="543.6724" y2="2963.731" gradientTransform="matrix(0.9975 -0.0369 0.1345 0.99 472.6763 -185.2697)">
						<stop  offset="0" style="stop-color:#F57E53"/>
						<stop  offset="0.0045" style="stop-color:#F58152"/>
						<stop  offset="0.042" style="stop-color:#F99A4D"/>
						<stop  offset="0.084" style="stop-color:#FCAD49"/>
						<stop  offset="0.1333" style="stop-color:#FEBA46"/>
						<stop  offset="0.1962" style="stop-color:#FFC244"/>
						<stop  offset="0.3183" style="stop-color:#FFC444"/>
						<stop  offset="0.455" style="stop-color:#FDB946"/>
						<stop  offset="0.6941" style="stop-color:#F99C4C"/>
						<stop  offset="0.9964" style="stop-color:#F36F56"/>
					</linearGradient>
					<path style="fill:url(#SVGID_00000101091501448791180490000016686669576109879975_);" d="M1083.492,2611.54l-87.682,3.034
						c-16.048,0.556-31.009-12.07-33.208-28.055l-11.985-87.138c-2.196-15.966,9.181-29.317,25.242-29.672l87.759-1.939
						c15.776-0.349,30.437,12.264,32.619,28.03l11.91,86.047C1110.332,2597.632,1099.255,2610.994,1083.492,2611.54z"/>
					
						<linearGradient id="SVGID_00000075866420254226987490000000713964237536614287_" gradientUnits="userSpaceOnUse" x1="119.5318" y1="2765.1736" x2="248.8863" y2="2765.1736" gradientTransform="matrix(0.9966 -0.0282 0.1345 0.99 474.0173 -191.4288)">
						<stop  offset="0" style="stop-color:#FF9085"/>
						<stop  offset="1" style="stop-color:#FB6FBB"/>
					</linearGradient>
					<path style="fill:url(#SVGID_00000075866420254226987490000000713964237536614287_);" d="M1076.205,2603.446l-75.322,2.552
						c-14.832,0.503-28.583-11.114-30.617-25.894l-10.291-74.795c-2.031-14.766,8.421-27.052,23.265-27.391l75.379-1.72
						c14.615-0.333,28.121,11.273,30.142,25.875l10.233,73.966C1101.018,2590.656,1090.809,2602.951,1076.205,2603.446z
						 M983.752,2481.627c-12.78,0.295-21.776,10.876-20.027,23.588l10.29,74.771c1.751,12.722,13.587,22.727,26.358,22.298
						l75.323-2.528c12.578-0.422,21.374-11.01,19.633-23.6l-10.236-73.99c-1.74-12.578-13.376-22.574-25.963-22.282
						L983.752,2481.627z"/>
					<g>
						<g>
							<path style="fill:#F4F7FA;" d="M963.125,2514.527l125.071-3.242L963.125,2514.527z"/>
							
								<linearGradient id="SVGID_00000145753235147796358450000016556346974001331594_" gradientUnits="userSpaceOnUse" x1="123.3456" y1="2732.3503" x2="248.5494" y2="2732.3503" gradientTransform="matrix(0.9975 -0.0369 0.1345 0.99 472.6763 -185.2697)">
								<stop  offset="0" style="stop-color:#FF9085"/>
								<stop  offset="1" style="stop-color:#FB6FBB"/>
							</linearGradient>
							<polygon style="fill:url(#SVGID_00000145753235147796358450000016556346974001331594_);" points="1088.45,2513.124 
								963.381,2516.386 962.87,2512.667 1087.941,2509.446 							"/>
						</g>
						<g>
							<path style="fill:#F4F7FA;" d="M966.994,2542.645l125.05-3.544L966.994,2542.645z"/>
							
								<linearGradient id="SVGID_00000152241950865221117620000010909037932980656812_" gradientUnits="userSpaceOnUse" x1="123.3943" y1="2760.6023" x2="248.6182" y2="2760.6023" gradientTransform="matrix(0.9975 -0.0369 0.1345 0.99 472.6763 -185.2697)">
								<stop  offset="0" style="stop-color:#FF9085"/>
								<stop  offset="1" style="stop-color:#FB6FBB"/>
							</linearGradient>
							<polygon style="fill:url(#SVGID_00000152241950865221117620000010909037932980656812_);" points="1092.298,2540.94 
								967.251,2544.505 966.739,2540.785 1091.789,2537.26 							"/>
						</g>
						<g>
							<path style="fill:#F4F7FA;" d="M970.864,2570.772l125.03-3.847L970.864,2570.772z"/>
							
								<linearGradient id="SVGID_00000164478350058858466440000014080381027524057729_" gradientUnits="userSpaceOnUse" x1="123.4435" y1="2788.8635" x2="248.6874" y2="2788.8635" gradientTransform="matrix(0.9975 -0.0369 0.1345 0.99 472.6763 -185.2697)">
								<stop  offset="0" style="stop-color:#FF9085"/>
								<stop  offset="1" style="stop-color:#FB6FBB"/>
							</linearGradient>
							<polygon style="fill:url(#SVGID_00000164478350058858466440000014080381027524057729_);" points="1096.148,2568.766 
								971.121,2572.633 970.609,2568.913 1095.639,2565.085 							"/>
						</g>
					</g>
					<g>
						<path style="fill:#FEC045;" d="M1054,2588.88l-34.931,1.137c-8.9,0.29-17.192-6.737-18.415-15.615l-8.977-65.156
							c-1.222-8.87,5.074-16.303,13.978-16.518l34.951-0.844c8.838-0.213,17.055,6.827,18.273,15.646l8.951,64.778
							C1069.05,2581.135,1062.832,2588.592,1054,2588.88z"/>
						
							<linearGradient id="SVGID_00000103966511693667588750000001998040290464517558_" gradientUnits="userSpaceOnUse" x1="148.8129" y1="2765.1636" x2="220.0919" y2="2765.1636" gradientTransform="matrix(0.9966 -0.0282 0.1345 0.99 474.0173 -191.4288)">
							<stop  offset="0" style="stop-color:#FF9085"/>
							<stop  offset="1" style="stop-color:#FB6FBB"/>
						</linearGradient>
						<path style="fill:url(#SVGID_00000103966511693667588750000001998040290464517558_);" d="M1054.255,2590.727l-34.931,1.144
							c-9.949,0.325-19.168-7.485-20.535-17.41l-8.978-65.166c-1.366-9.917,5.634-18.178,15.588-18.417l34.953-0.838
							c9.878-0.237,19.01,7.588,20.372,17.445l8.95,64.767C1071.037,2582.115,1064.127,2590.404,1054.255,2590.727z
							 M1005.91,2494.58c-7.9,0.192-13.453,6.75-12.369,14.619l8.976,65.145c1.085,7.875,8.4,14.075,16.295,13.819l34.933-1.132
							c7.837-0.254,13.325-6.833,12.243-14.666l-8.951-64.788c-1.081-7.826-8.333-14.038-16.175-13.847L1005.91,2494.58z"/>
					</g>
				</g>
				
					<linearGradient id="SVGID_00000093895467076697353090000011654076853983403150_" gradientUnits="userSpaceOnUse" x1="36.9168" y1="3085.0117" x2="1908.6066" y2="3154.637" gradientTransform="matrix(0.9975 -0.0369 0.1345 0.99 472.6763 -185.2697)">
					<stop  offset="0" style="stop-color:#FB6FBB"/>
					<stop  offset="1" style="stop-color:#FF9085"/>
				</linearGradient>
				<path style="opacity:0.15;fill:url(#SVGID_00000093895467076697353090000011654076853983403150_);" d="M1270.572,2824.956
					c-90.129,15.93-148.889,19.914-218.678,1.723c-96.74-25.216-167.349-80.583-207.207-117.493l38.85,284.102
					c2.629,19.225,20.675,33.852,40.045,32.504l1076.97-74.951c15.913-1.107,26.859-16.205,24.369-33.551l-15.054-104.879
					c-166.863-90.989-290.297-97.281-374.105-84.735C1533.419,2742.999,1481.062,2787.754,1270.572,2824.956z"/>
				<g style="opacity:0.42;">
					
						<linearGradient id="SVGID_00000109029085993649582920000000028384805816288952_" gradientUnits="userSpaceOnUse" x1="110.9607" y1="3118.1414" x2="380.9412" y2="3118.1414" gradientTransform="matrix(0.9966 -0.0282 0.1345 0.99 474.0173 -191.4288)">
						<stop  offset="0" style="stop-color:#FB6FBB"/>
						<stop  offset="1" style="stop-color:#FF9085"/>
					</linearGradient>
					<path style="fill:url(#SVGID_00000109029085993649582920000000028384805816288952_);" d="M1267.882,2908.959l-250.593,15.387
						c-4.84,0.297-9.347-3.416-10.012-8.252l-5.479-39.834c-0.665-4.833,2.756-9.011,7.597-9.284l250.681-14.142
						c4.631-0.261,8.954,3.388,9.611,8.109l5.414,38.91C1275.757,2904.577,1272.511,2908.675,1267.882,2908.959z"/>
					
						<linearGradient id="SVGID_00000081635668763336520200000010957334894653907103_" gradientUnits="userSpaceOnUse" x1="509.5721" y1="3105.8687" x2="846.2167" y2="3105.8687" gradientTransform="matrix(0.9966 -0.0282 0.1345 0.99 474.0173 -191.4288)">
						<stop  offset="0" style="stop-color:#FB6FBB"/>
						<stop  offset="1" style="stop-color:#FF9085"/>
					</linearGradient>
					<path style="fill:url(#SVGID_00000081635668763336520200000010957334894653907103_);" d="M1730.187,2881.721l-317.573,19.485
						c-4.609,0.283-8.923-3.346-9.583-8.065l-5.437-38.868c-0.66-4.716,2.576-8.787,7.187-9.047l317.689-17.916
						c4.353-0.245,8.444,3.299,9.093,7.876l5.352,37.723C1737.565,2877.489,1734.538,2881.454,1730.187,2881.721z"/>
				</g>
				
					<linearGradient id="SVGID_00000128461629788476311510000016500702708729854861_" gradientUnits="userSpaceOnUse" x1="735.2706" y1="2621.9187" x2="909.9527" y2="2621.9187" gradientTransform="matrix(0.9739 -0.1443 0.2507 0.9798 303.8133 -34.2391)">
					<stop  offset="0" style="stop-color:#FF9085"/>
					<stop  offset="1" style="stop-color:#FB6FBB"/>
				</linearGradient>
				<path style="opacity:0.26;fill:url(#SVGID_00000128461629788476311510000016500702708729854861_);" d="M1849.253,2412.878
					c6.536,45.723-27.368,84.066-75.554,85.615c-47.994,1.542-91.984-34.03-98.426-79.426
					c-6.438-45.371,27.037-83.643,74.937-85.512C1798.302,2331.679,1842.722,2367.179,1849.253,2412.878z"/>
				<g style="opacity:0.53;">
					<path style="fill:#F4F7FA;" d="M1158.446,2544.546c-4.984,5.585-14.341,5.95-20.907,0.768c-6.6-5.21-7.827-14.004-2.734-19.592
						c5.067-5.557,14.44-5.795,20.931-0.583C1162.192,2530.325,1163.403,2538.991,1158.446,2544.546z"/>
					<g>
						<path style="fill:#F4F7FA;" d="M1212.034,2597.013c-1.377,0.084-2.827-0.336-4.02-1.281c-2.395-1.896-2.854-5.179-1.026-7.326
							c26.968-31.656,20.167-80.209-15.365-109.82c-2.409-2.008-2.868-5.287-1.024-7.317c1.839-2.026,5.274-2.035,7.668-0.028
							c39.945,33.496,47.616,88.227,17.359,124.023C1214.72,2596.339,1213.413,2596.928,1212.034,2597.013z"/>
						<path style="fill:#F4F7FA;" d="M1194.642,2583.234c-1.398,0.076-2.868-0.356-4.079-1.314
							c-2.429-1.923-2.891-5.229-1.032-7.377c20.183-23.318,15.144-59.314-11.341-81.111c-2.44-2.008-2.902-5.311-1.031-7.37
							c1.867-2.057,5.348-2.088,7.771-0.08c31.047,25.711,36.971,68.021,13.362,95.517
							C1197.369,2582.573,1196.042,2583.158,1194.642,2583.234z"/>
						<path style="fill:#F4F7FA;" d="M1177.003,2569.259c-1.419,0.067-2.912-0.377-4.14-1.349c-2.463-1.95-2.929-5.28-1.039-7.429
							c13.109-14.904,9.87-38.065-7.264-51.987c-2.471-2.008-2.936-5.335-1.039-7.424c1.894-2.087,5.422-2.142,7.877-0.135
							c10.632,8.695,17.412,20.333,19.159,32.826c1.747,12.496-1.731,24.469-9.849,33.774
							C1179.771,2568.611,1178.423,2569.191,1177.003,2569.259z"/>
					</g>
				</g>
			</g>
		</g>
		<g>
			
				<linearGradient id="SVGID_00000018959159052919804410000018084201651934651809_" gradientUnits="userSpaceOnUse" x1="1561.2122" y1="1692.7733" x2="3891.8821" y2="-1300.5328">
				<stop  offset="0" style="stop-color:#AB316D"/>
				<stop  offset="1" style="stop-color:#792D3D"/>
			</linearGradient>
			<path style="fill:url(#SVGID_00000018959159052919804410000018084201651934651809_);" d="M2398.004,678.659l-539.796-33.094
				c-39.633-2.044-71.912,28.945-71.912,69.225v504.27c0,40.28,32.278,73.238,71.912,73.612l30.033,0.282v124.181
				c0,18.611,22.061,27.695,40.274,7.112l112.92-129.848l356.568,1.082c33.348,0.314,60.269-29.191,60.269-65.901V748.235
				C2458.273,711.526,2431.352,680.379,2398.004,678.659z"/>
			
				<linearGradient id="SVGID_00000137848440007854739680000001100506331470527630_" gradientUnits="userSpaceOnUse" x1="1782.2379" y1="1417.7313" x2="2204.4063" y2="875.5358">
				<stop  offset="0" style="stop-color:#FCB148"/>
				<stop  offset="0.0521" style="stop-color:#FDBA46"/>
				<stop  offset="0.1424" style="stop-color:#FFC244"/>
				<stop  offset="0.3183" style="stop-color:#FFC444"/>
				<stop  offset="0.4849" style="stop-color:#FDB946"/>
				<stop  offset="0.7754" style="stop-color:#F99C4D"/>
				<stop  offset="0.8658" style="stop-color:#F8924F"/>
				<stop  offset="1" style="stop-color:#F8924F"/>
			</linearGradient>
			<path style="fill:url(#SVGID_00000137848440007854739680000001100506331470527630_);" d="M2415.115,1282.33l-539.797-2.809
				c-39.633-0.374-71.913-33.331-71.913-73.611V701.64c0-40.28,32.28-71.269,71.913-69.225l539.797,33.094
				c33.348,1.72,60.267,32.867,60.267,69.576v481.345C2475.382,1253.139,2448.464,1282.645,2415.115,1282.33z"/>
			
				<linearGradient id="SVGID_00000161589967864276943590000006417977106728988861_" gradientUnits="userSpaceOnUse" x1="2242.6147" y1="1228.9675" x2="1969.3328" y2="533.881">
				<stop  offset="0" style="stop-color:#FCB148"/>
				<stop  offset="0.0521" style="stop-color:#FDBA46"/>
				<stop  offset="0.1424" style="stop-color:#FFC244"/>
				<stop  offset="0.3183" style="stop-color:#FFC444"/>
				<stop  offset="0.4849" style="stop-color:#FDB946"/>
				<stop  offset="0.7754" style="stop-color:#F99C4D"/>
				<stop  offset="0.8658" style="stop-color:#F8924F"/>
				<stop  offset="1" style="stop-color:#F8924F"/>
			</linearGradient>
			<path style="fill:url(#SVGID_00000161589967864276943590000006417977106728988861_);" d="M1823.953,1219.479V689.322
				c0-21.437,17.173-37.952,38.304-36.89l563.887,32.641c17.763,0.892,32.13,17.491,32.13,37.078v506.171
				c0,19.587-14.367,35.311-32.131,35.119l-563.884-4.732C1841.126,1258.48,1823.953,1240.917,1823.953,1219.479z"/>
			<g>
				<g>
					<g>
						<path style="fill:#FFFFFF;" d="M2186.471,1029.018c0-9.633-2.297-17.257-6.895-22.873c-4.6-5.619-12.686-11.036-24.269-16.254
							c-11.601-5.226-22.33-10.495-32.184-15.806c-9.866-5.318-18.376-11.398-25.524-18.24
							c-7.155-6.849-12.645-14.693-16.467-23.534c-3.823-8.845-5.736-19.473-5.736-31.879c0-20.76,6.811-37.614,20.415-50.543
							c13.579-12.906,31.647-20.008,54.172-21.322V789.88l28.179,1.185v39.348c21.55,4.14,38.435,13.96,50.686,29.451
							c12.231,15.465,18.339,34.726,18.339,57.802l-59.479-2.011c0-12.681-2.356-22.519-7.07-29.516
							c-4.717-7.002-11.444-10.664-20.187-10.983c-7.806-0.285-13.873,2.031-18.196,6.95c-4.326,4.921-6.49,11.849-6.49,20.781
							c0,9.054,2.49,16.326,7.468,21.812c4.974,5.483,12.962,10.815,23.954,15.994c10.975,5.172,21.317,10.499,31.026,15.983
							c9.697,5.477,18.062,11.606,25.099,18.389c7.03,6.776,12.532,14.595,16.51,23.459c3.976,8.859,5.963,19.421,5.963,31.688
							c0,20.77-6.343,37.563-19.045,50.395c-12.724,12.854-30.085,20.149-52.116,21.872v36.794l-28.192-0.534v-37.047
							c-25.862-3.37-45.763-12.966-59.656-28.802c-13.919-15.865-20.888-36.531-20.888-61.975l60.266,1.642
							c0,13.957,2.998,24.655,8.99,32.089c5.987,7.428,14.486,11.274,25.487,11.543c8.034,0.196,14.349-2.121,18.948-6.948
							C2184.173,1044.417,2186.471,1037.676,2186.471,1029.018z"/>
					</g>
					<path style="fill:#FFFFFF;" d="M2351.528,763.65c3.134,0.139,5.682,2.92,5.682,6.199v401.627c0,3.279-2.548,5.905-5.682,5.853
						l-394.043-6.539c-3.303-0.055-5.991-2.84-5.991-6.208V751.999c0-3.368,2.688-5.99,5.991-5.843L2351.528,763.65L2351.528,763.65
						z M2351.528,740.877l-394.043-18.097c-15.991-0.735-28.969,11.889-28.969,28.208v413.203c0,16.319,12.979,29.734,28.969,29.975
						l394.043,5.936c15.145,0.228,27.391-12.418,27.391-28.256V770.804C2378.919,754.966,2366.673,741.573,2351.528,740.877
						L2351.528,740.877z"/>
				</g>
			</g>
			
				<linearGradient id="SVGID_00000017479139584804026150000005047644108544719035_" gradientUnits="userSpaceOnUse" x1="1818.7943" y1="1478.7653" x2="2410.4868" y2="718.8479">
				<stop  offset="0" style="stop-color:#FCB148"/>
				<stop  offset="0.0521" style="stop-color:#FDBA46"/>
				<stop  offset="0.1424" style="stop-color:#FFC244"/>
				<stop  offset="0.3183" style="stop-color:#FFC444"/>
				<stop  offset="0.4849" style="stop-color:#FDB946"/>
				<stop  offset="0.7754" style="stop-color:#F99C4D"/>
				<stop  offset="0.8658" style="stop-color:#F8924F"/>
				<stop  offset="1" style="stop-color:#F8924F"/>
			</linearGradient>
			<path style="fill:url(#SVGID_00000017479139584804026150000005047644108544719035_);" d="M1905.351,1403.985V1254.26
				l174.987,1.941l-140.271,161.208C1927.968,1431.314,1905.351,1422.595,1905.351,1403.985z"/>
		</g>
	</g>
</g>
</svg>
