<?xml version="1.0" encoding="utf-8"?>
<!-- Generator: Adobe Illustrator 27.5.0, SVG Export Plug-In . SVG Version: 6.00 Build 0)  -->
<svg version="1.1" xmlns="http://www.w3.org/2000/svg" xmlns:xlink="http://www.w3.org/1999/xlink" x="0px" y="0px"
	 viewBox="0 0 1200 1200" style="enable-background:new 0 0 1200 1200;" xml:space="preserve">
<g id="Background">
	
		<radialGradient id="SVGID_1_" cx="599.181" cy="600" r="509.8667" gradientTransform="matrix(1.0001 0 0 1.5 0.7591 -300)" gradientUnits="userSpaceOnUse">
		<stop  offset="0" style="stop-color:#E6E6E6"/>
		<stop  offset="1" style="stop-color:#F0F0F0"/>
	</radialGradient>
	<rect style="fill:url(#SVGID_1_);" width="1200" height="1200"/>
</g>
<g id="Graphic_Elements">
	<g>
		<defs>
			<rect id="SVGID_00000018926990838706137680000011708706358179966892_" width="1200" height="1200"/>
		</defs>
		<clipPath id="SVGID_00000152959934397184892730000017213826264585055888_">
			<use xlink:href="#SVGID_00000018926990838706137680000011708706358179966892_"  style="overflow:visible;"/>
		</clipPath>
		<g style="clip-path:url(#SVGID_00000152959934397184892730000017213826264585055888_);">
			<g>
				
					<linearGradient id="SVGID_00000024003538866215032860000007991170455973000615_" gradientUnits="userSpaceOnUse" x1="1809.3823" y1="608.866" x2="2002.0165" y2="608.866" gradientTransform="matrix(0 -1 1 0 476.576 1747.9626)">
					<stop  offset="0" style="stop-color:#3F8CE2"/>
					<stop  offset="1" style="stop-color:#162C9A"/>
				</linearGradient>
				<path style="fill:url(#SVGID_00000024003538866215032860000007991170455973000615_);" d="M1176.962-146.156l-79.94,79.94
					c-6.396,6.396-16.765,6.396-23.16,0l-79.94-79.94c-6.396-6.396-6.396-16.765,0-23.161l79.94-79.94
					c6.396-6.396,16.765-6.396,23.16,0l79.94,79.94C1183.358-162.921,1183.358-152.552,1176.962-146.156z"/>
				
					<linearGradient id="SVGID_00000092429726977280250950000013319942020467764617_" gradientUnits="userSpaceOnUse" x1="1000.29" y1="959.0743" x2="1878.9895" y2="959.0743" gradientTransform="matrix(0 -1 1 0 476.576 1747.9626)">
					<stop  offset="0" style="stop-color:#3F8CE2"/>
					<stop  offset="1" style="stop-color:#162C9A"/>
				</linearGradient>
				<path style="fill:url(#SVGID_00000092429726977280250950000013319942020467764617_);" d="M1868.575,323.834l-417.413,417.414
					c-8.567,8.566-22.456,8.566-31.022,0l-417.414-417.414c-8.567-8.567-8.567-22.456,0-31.022l417.414-417.414
					c8.567-8.567,22.456-8.567,31.022,0l417.413,417.414C1877.142,301.378,1877.142,315.268,1868.575,323.834z"/>
				
					<linearGradient id="SVGID_00000039114400294552072500000011488490440027493274_" gradientUnits="userSpaceOnUse" x1="1465.2271" y1="493.2948" x2="1884.1425" y2="493.2948" gradientTransform="matrix(0 -1 1 0 476.576 1747.9626)">
					<stop  offset="0" style="stop-color:#3F8CE2"/>
					<stop  offset="1" style="stop-color:#162C9A"/>
				</linearGradient>
				<path style="fill:url(#SVGID_00000039114400294552072500000011488490440027493274_);" d="M1172.904,88.789L985.382,276.311
					c-8.567,8.567-22.456,8.567-31.023,0L766.838,88.789c-8.567-8.567-8.567-22.456,0-31.023L954.36-129.755
					c8.567-8.567,22.456-8.567,31.023,0l187.521,187.521C1181.47,66.333,1181.47,80.223,1172.904,88.789z"/>
				
					<linearGradient id="SVGID_00000034808500353228945750000016579388868640884148_" gradientUnits="userSpaceOnUse" x1="1686.6414" y1="-104.7746" x2="2012.061" y2="-104.7746" gradientTransform="matrix(0 -1 1 0 476.576 1747.9626)">
					<stop  offset="0" style="stop-color:#3F8CE2"/>
					<stop  offset="1" style="stop-color:#162C9A"/>
				</linearGradient>
				<path style="fill:url(#SVGID_00000034808500353228945750000016579388868640884148_);" d="M528.086-85.877L387.313,54.896
					c-8.567,8.567-22.456,8.567-31.022,0L215.517-85.877c-8.567-8.567-8.567-22.456,0-31.023L356.29-257.673
					c8.566-8.567,22.456-8.567,31.022,0L528.086-116.9C536.653-108.333,536.653-94.444,528.086-85.877z"/>
				
					<linearGradient id="SVGID_00000101796906864030921790000012161794978122366138_" gradientUnits="userSpaceOnUse" x1="1695.6145" y1="262.9075" x2="2114.5298" y2="262.9075" gradientTransform="matrix(0 -1 1 0 476.576 1747.9626)">
					<stop  offset="0" style="stop-color:#A8A8A8"/>
					<stop  offset="1" style="stop-color:#EBEBEB"/>
				</linearGradient>
				<path style="fill:url(#SVGID_00000101796906864030921790000012161794978122366138_);" d="M942.516-141.598L754.995,45.923
					c-8.567,8.567-22.456,8.567-31.022,0L536.451-141.598c-8.567-8.567-8.567-22.456,0-31.023l187.521-187.521
					c8.566-8.567,22.456-8.567,31.022,0l187.521,187.521C951.083-164.054,951.083-150.165,942.516-141.598z"/>
				
					<linearGradient id="SVGID_00000052072427101879213290000013093888819453665456_" gradientUnits="userSpaceOnUse" x1="1693.0059" y1="725.2422" x2="1885.6401" y2="725.2422" gradientTransform="matrix(0 -1 1 0 476.576 1747.9626)">
					<stop  offset="0" style="stop-color:#A8A8A8"/>
					<stop  offset="1" style="stop-color:#EBEBEB"/>
				</linearGradient>
				<path style="fill:url(#SVGID_00000052072427101879213290000013093888819453665456_);" d="M1293.339-29.78l-79.94,79.94
					c-6.396,6.396-16.765,6.396-23.16,0l-79.94-79.94c-6.396-6.396-6.396-16.765,0-23.16l79.94-79.94
					c6.396-6.396,16.765-6.396,23.16,0l79.94,79.94C1299.734-46.545,1299.734-36.176,1293.339-29.78z"/>
				
					<linearGradient id="SVGID_00000020367263651336766130000018441699223126310310_" gradientUnits="userSpaceOnUse" x1="1576.4727" y1="139.8977" x2="1769.1069" y2="139.8977" gradientTransform="matrix(0 -1 1 0 476.576 1747.9626)">
					<stop  offset="0" style="stop-color:#3F8CE2"/>
					<stop  offset="1" style="stop-color:#162C9A"/>
				</linearGradient>
				<path style="fill:url(#SVGID_00000020367263651336766130000018441699223126310310_);" d="M707.994,86.753l-79.94,79.94
					c-6.396,6.396-16.765,6.396-23.161,0l-79.94-79.94c-6.396-6.396-6.396-16.765,0-23.16l79.94-79.94
					c6.396-6.396,16.765-6.396,23.161,0l79.94,79.94C714.39,69.988,714.39,80.357,707.994,86.753z"/>
			</g>
			<g>
				
					<linearGradient id="SVGID_00000054964667865491049670000010798382687673895588_" gradientUnits="userSpaceOnUse" x1="1527.0833" y1="989.0735" x2="1822.3492" y2="989.0735" gradientTransform="matrix(-1 0 0 -1 1946.3428 2342.0471)">
					<stop  offset="0" style="stop-color:#3F8CE2"/>
					<stop  offset="1" style="stop-color:#162C9A"/>
				</linearGradient>
				<path style="fill:url(#SVGID_00000054964667865491049670000010798382687673895588_);" d="M283.207,1210.137l131.256,131.256
					c6.396,6.396,6.396,16.765,0,23.161L283.207,1495.81c-6.396,6.396-16.765,6.396-23.16,0L128.79,1364.554
					c-6.396-6.396-6.396-16.765,0-23.161l131.256-131.256C266.442,1203.742,276.811,1203.742,283.207,1210.137z"/>
				
					<linearGradient id="SVGID_00000108282628034459711290000006264015293816878507_" gradientUnits="userSpaceOnUse" x1="1690.4415" y1="1151.7297" x2="1985.7074" y2="1151.7297" gradientTransform="matrix(-1 0 0 -1 1946.3428 2342.0471)">
					<stop  offset="0" style="stop-color:#A8A8A8"/>
					<stop  offset="1" style="stop-color:#EBEBEB"/>
				</linearGradient>
				<path style="fill:url(#SVGID_00000108282628034459711290000006264015293816878507_);" d="M119.848,1047.481l131.256,131.256
					c6.396,6.396,6.396,16.765,0,23.16l-131.256,131.256c-6.396,6.396-16.765,6.396-23.16,0l-131.256-131.256
					c-6.396-6.396-6.396-16.765,0-23.16l131.256-131.256C103.084,1041.085,113.453,1041.085,119.848,1047.481z"/>
				
					<linearGradient id="SVGID_00000134250791890653353810000011213896801774843542_" gradientUnits="userSpaceOnUse" x1="1093.8033" y1="1067.4221" x2="1389.0692" y2="1067.4221" gradientTransform="matrix(-1 0 0 -1 1946.3428 2342.0471)">
					<stop  offset="0" style="stop-color:#A8A8A8"/>
					<stop  offset="1" style="stop-color:#EBEBEB"/>
				</linearGradient>
				<path style="fill:url(#SVGID_00000134250791890653353810000011213896801774843542_);" d="M716.487,1131.789l131.256,131.256
					c6.396,6.396,6.396,16.765,0,23.16l-131.256,131.256c-6.396,6.396-16.765,6.396-23.16,0L562.07,1286.205
					c-6.396-6.396-6.396-16.765,0-23.16l131.256-131.256C699.722,1125.393,710.091,1125.393,716.487,1131.789z"/>
				
					<linearGradient id="SVGID_00000132781538754194194290000015986032878951076765_" gradientUnits="userSpaceOnUse" x1="1265.5042" y1="1233.5221" x2="1717.3127" y2="1233.5221" gradientTransform="matrix(-1 0 0 -1 1946.3428 2342.0471)">
					<stop  offset="0" style="stop-color:#3F8CE2"/>
					<stop  offset="1" style="stop-color:#162C9A"/>
				</linearGradient>
				<path style="fill:url(#SVGID_00000132781538754194194290000015986032878951076765_);" d="M470.446,889.046l203.968,203.968
					c8.567,8.567,8.567,22.456,0,31.023l-203.968,203.968c-8.567,8.567-22.456,8.567-31.022,0l-203.968-203.968
					c-8.567-8.567-8.567-22.456,0-31.023l203.968-203.968C447.99,880.479,461.879,880.479,470.446,889.046z"/>
				
					<linearGradient id="SVGID_00000059291618422742071960000010031070422138747070_" gradientUnits="userSpaceOnUse" x1="1778.9017" y1="1402.1233" x2="2224.2813" y2="1402.1233" gradientTransform="matrix(-1 0 0 -1 1946.3428 2342.0471)">
					<stop  offset="0" style="stop-color:#3F8CE2"/>
					<stop  offset="1" style="stop-color:#162C9A"/>
				</linearGradient>
				<path style="fill:url(#SVGID_00000059291618422742071960000010031070422138747070_);" d="M-39.737,723.659l200.753,200.753
					c8.567,8.567,8.567,22.456,0,31.022l-200.753,200.754c-8.567,8.567-22.456,8.567-31.023,0l-200.753-200.754
					c-8.567-8.566-8.567-22.456,0-31.022L-70.76,723.659C-62.193,715.092-48.304,715.092-39.737,723.659z"/>
				
					<linearGradient id="SVGID_00000075874752097271062180000013237998213147460008_" gradientUnits="userSpaceOnUse" x1="1667.5999" y1="1320.1458" x2="1806.2391" y2="1320.1458" gradientTransform="matrix(-1 0 0 -1 1946.3428 2342.0471)">
					<stop  offset="0" style="stop-color:#3F8CE2"/>
					<stop  offset="1" style="stop-color:#162C9A"/>
				</linearGradient>
				<path style="fill:url(#SVGID_00000075874752097271062180000013237998213147460008_);" d="M221.003,957.378l52.943,52.943
					c6.396,6.396,6.396,16.765,0,23.16l-52.943,52.943c-6.396,6.396-16.765,6.396-23.16,0l-52.943-52.943
					c-6.396-6.396-6.396-16.765,0-23.16l52.943-52.943C204.239,950.983,214.608,950.983,221.003,957.378z"/>
			</g>
		</g>
	</g>
</g>
</svg>
